<?xml version="1.0" standalone="no"?><!DOCTYPE svg PUBLIC "-//W3C//DTD SVG 1.1//EN" "http://www.w3.org/Graphics/SVG/1.1/DTD/svg11.dtd"><svg t="1699608626667" class="icon" viewBox="0 0 1024 1024" version="1.1" xmlns="http://www.w3.org/2000/svg" p-id="1554" xmlns:xlink="http://www.w3.org/1999/xlink" width="200" height="200"><path d="M729.959605 1022.392527c-8.886029 0-18.45099-2.745683-28.435293-8.137206l-177.450999-95.749456c-23.622859-12.759938-68.362516-12.729985-91.955422 0l-177.470969 95.759441c-22.574507 12.190833-44.150584 10.134067-56.171683-4.522889-5.920691-7.208666-12.170864-20.627568-8.346876-43.591463l33.946627-202.84108c4.752528-28.495198-8.257018-69.610554-28.40534-89.798812L52.025497 529.84694c-21.156736-21.176705-19.51931-39.537836-16.633847-48.593598s12.051053-24.890865 41.33501-29.254005l198.40805-29.61344c27.856203-4.163454 61.902673-29.563518 74.403019-55.482766l88.720508-184.539855c13.069451-27.197239 30.591901-31.270834 39.877302-31.270833s26.807851 4.073595 39.877302 31.270833l88.690555 184.539855c12.480378 25.959185 46.546816 51.339281 74.413003 55.482766l198.348144 29.61344c29.244021 4.36314 38.429578 20.198243 41.295073 29.254005s4.532873 27.406909-16.623863 48.593598L760.651349 673.501077c-20.188259 20.16829-33.197804 61.29363-28.425308 89.798813l33.946627 202.84108c3.833972 22.963895-2.406217 36.382797-8.346876 43.591462-6.759372 8.167159-16.603894 12.660095-27.776329 12.660095z" fill="#00AAEE" p-id="1555"></path><path d="M892.52401 137.374012l-25.499907-34.69545c-3.724145-5.08201-5.331617-15.176139-3.414631-21.186689l12.809859-39.937208c1.99686-6.250173 1.477677-11.981162-1.50763-16.214506-3.843956-5.411492-10.982732-7.228635-18.820409-4.572811L817.082624 33.886721c-5.661099 1.867064-15.974883 0.129796-20.717427-3.50449l-33.946627-26.088981c-7.388383-5.711021-15.745244-5.611178-20.737395-0.339466-2.116672 2.236484-4.622732 6.409922-4.452999 13.618588l0.998431 42.583048c0.159749 6.260157-4.29325 15.256013-9.30537 18.860346l-33.387506 23.962325c-5.990581 4.29325-8.985872 10.164019-8.107253 16.044773s5.331617 10.553407 12.320629 12.87975l40.106941 13.209232c5.94066 1.99686 13.069451 9.255448 14.976453 15.325903l12.939655 41.025497c2.516044 8.047347 7.987442 12.829828 14.557113 12.829828 2.995291 0 8.696327-1.098273 13.728415-8.446719l23.403204-34.156297c3.474537-5.08201 11.981162-9.525024 18.460974-9.525025l42.333441 1.068321c7.108823 0 12.640126-2.995291 15.176139-8.147191s1.487661-11.731555-2.905432-17.712151z m-698.531722 80.453505l-18.690614-6.649545c-5.850801-2.066751-12.660095-9.58493-14.307505-15.66537l-5.251742-19.619153c-3.893878-14.497207-18.970174-17.971744-28.035921-5.770927l-11.981162 15.635417c-3.584364 4.832402-12.140911 8.097269-18.970174 8.097269h-20.967034a16.563957 16.563957 0 0 0-14.916547 8.985872c-2.655824 5.141916-1.78719 11.58179 2.346311 17.652246l11.322198 16.613878c3.544427 5.181853 4.772496 15.285966 2.595919 21.206658l-6.989012 18.970174c-3.095134 8.456704-0.708885 13.918117 0.99843 16.404208 3.694192 5.43146 10.623297 7.338462 18.550834 4.912277l18.970173-5.87077c5.631146-1.767221 15.904993 0.259592 20.517741 3.993721l15.435731 12.660095c3.774066 3.065181 7.79774 4.702606 11.641696 4.702606 6.899153 0 13.978023-5.29168 14.277552-17.123078l0.369419-20.208227c0.119812-6.350016 4.992151-15.275982 10.09413-18.750519l16.534004-11.142481c6.170299-4.15347 9.275417-9.914412 8.556547-15.815135s-5.131931-10.733125-12.100974-13.219216z" fill="#7FD4F6" p-id="1556"></path></svg>